<svg version="1.1" id="Layer_1" xmlns="http://www.w3.org/2000/svg" xmlns:xlink="http://www.w3.org/1999/xlink" x="0px" y="0px"
	 width="100%" viewBox="0 0 288 288" enable-background="new 0 0 288 288" xml:space="preserve">
<path fill="#000000" opacity="1.000000" stroke="none" 
	d="
M66.585739,222.443298 
	C34.645679,194.479370 20.032593,159.292648 24.023748,117.690102 
	C29.004175,65.775681 66.275368,23.634602 118.339417,12.178484 
	C170.838547,0.626630 224.014435,25.177265 249.763092,71.947357 
	C262.125397,94.402412 266.863708,118.601906 263.887848,143.771729 
	C258.206909,191.821167 225.589661,231.566681 178.424911,245.507858 
	C137.250504,257.678375 100.231895,248.910126 66.585739,222.443298 
M122.763626,245.692474 
	C139.373367,248.506104 155.854187,248.180130 172.263199,244.069839 
	C235.467545,228.237778 273.576477,164.934479 258.151031,101.738838 
	C243.364914,41.162544 180.972870,-0.530625 114.793159,16.226778 
	C64.776115,28.891623 27.300241,73.694054 26.452990,128.696228 
	C25.981537,159.302155 36.642025,186.083359 57.023186,208.821564 
	C74.474594,228.291183 96.320847,240.333786 122.763626,245.692474 
z"/>
<path fill="#000000" opacity="1.000000" stroke="none" 
	d="
M96.222450,265.642822 
	C93.254707,265.974304 94.573769,268.230530 94.391029,269.734619 
	C94.147682,271.737610 93.925766,273.325378 91.335258,273.289581 
	C88.612579,273.251923 88.655731,271.364929 88.536133,269.515289 
	C87.859818,259.055847 89.297531,257.796692 100.108521,259.369537 
	C100.599251,259.440918 101.116562,259.664154 101.574059,259.574524 
	C104.333557,259.033966 107.392036,257.834320 109.327705,260.801697 
	C111.352791,263.906189 110.245514,267.589905 110.220451,271.029663 
	C110.205902,273.027161 108.695526,273.325012 107.051071,273.298187 
	C105.132385,273.266876 104.440086,272.245148 104.477036,270.430817 
	C104.512695,268.680359 105.296448,266.840271 103.842705,264.928955 
	C101.920044,265.929047 102.417084,267.731476 102.392548,269.202881 
	C102.352501,271.603485 102.061676,273.577240 98.902672,273.312653 
	C95.687599,273.043335 96.609634,270.731445 96.581299,268.847168 
	C96.566406,267.856689 96.470421,266.867462 96.222450,265.642822 
z"/>
<path fill="#000000" opacity="1.000000" stroke="none" 
	d="
M157.295792,262.100494 
	C157.294754,263.409302 157.291504,264.240143 157.295090,265.070953 
	C157.331024,273.364319 156.019730,274.611237 147.900879,273.656158 
	C144.794891,273.290741 143.352661,271.022034 142.905792,268.211426 
	C142.362473,264.794128 142.525070,261.397675 146.125031,259.561066 
	C148.248047,258.477997 150.904510,258.383240 151.417633,255.180481 
	C151.616913,253.936600 153.217209,253.890549 154.406937,254.077713 
	C155.858948,254.306122 156.876541,255.128098 157.028778,256.652100 
	C157.193497,258.301392 157.213577,259.965088 157.295792,262.100494 
z"/>
<path fill="#000000" opacity="1.000000" stroke="none" 
	d="
M85.513687,273.283051 
	C83.548943,273.427795 82.380219,272.878632 81.209671,271.671204 
	C79.642387,270.054626 77.766365,269.767090 76.099869,271.866211 
	C74.433479,273.965149 72.384796,273.553314 69.836609,272.478912 
	C70.933701,267.106934 72.714645,261.949646 74.873871,256.964935 
	C75.922478,254.544189 80.994232,254.135071 82.115921,256.459625 
	C84.479980,261.358826 86.537354,266.468140 87.200233,271.966309 
	C87.292175,272.728882 86.546494,273.035919 85.513687,273.283051 
z"/>
<path fill="#000000" opacity="1.000000" stroke="none" 
	d="
M186.131699,257.100708 
	C186.534836,259.012604 185.995865,261.211212 188.365952,261.352478 
	C190.826813,261.499115 190.564697,259.366455 190.683655,257.769318 
	C190.807327,256.108398 191.742218,255.423386 193.278214,255.407974 
	C194.989914,255.390793 196.233383,256.075409 196.262405,257.960358 
	C196.326187,262.104248 196.330780,266.249573 196.306412,270.394012 
	C196.296265,272.119995 195.506134,273.195587 193.614334,273.250610 
	C191.808807,273.303162 190.868652,272.564453 190.701538,270.692627 
	C190.551483,269.011963 191.137802,266.521057 188.331009,266.684052 
	C186.030762,266.817627 186.444351,269.039551 186.311508,270.613129 
	C186.157364,272.438934 185.247955,273.259705 183.434433,273.270264 
	C181.153000,273.283569 180.704269,271.842346 180.700470,269.997925 
	C180.692963,266.348724 180.633484,262.698486 180.699570,259.050598 
	C180.781799,254.511719 182.901993,254.408600 186.131699,257.100708 
z"/>
<path fill="#000000" opacity="1.000000" stroke="none" 
	d="
M122.663223,273.302734 
	C121.295143,273.265472 120.253166,273.031616 119.338249,273.275116 
	C116.758652,273.961700 114.328117,274.102600 112.580231,271.709320 
	C110.937210,269.459625 111.550339,267.332886 113.401344,265.470032 
	C114.873672,263.988281 113.240685,262.263153 113.815857,260.718842 
	C118.745010,257.898743 122.982086,258.270294 125.181152,261.715485 
	C127.237411,264.936951 126.013878,271.593231 122.663223,273.302734 
z"/>
<path fill="#000000" opacity="1.000000" stroke="none" 
	d="
M130.161911,273.254028 
	C127.116982,270.940643 125.934410,262.661774 127.850334,260.165314 
	C129.857269,257.550262 139.633957,258.721710 141.034973,261.870911 
	C142.354996,264.838043 142.201675,268.019348 141.598175,271.160217 
	C141.238815,273.030365 139.890106,273.369263 138.232117,273.295105 
	C136.305756,273.208954 135.760910,272.043030 135.586456,270.358826 
	C135.409927,268.654602 136.410583,266.730347 134.670273,265.137604 
	C131.402237,266.948517 135.940155,272.650818 130.161911,273.254028 
z"/>
<path fill="#000000" opacity="1.000000" stroke="none" 
	d="
M211.891510,266.980042 
	C211.497269,269.404388 212.356171,272.815430 209.944824,272.894043 
	C206.621292,273.002411 203.153137,275.011810 199.838181,272.891632 
	C199.429718,272.630402 199.050171,272.276154 198.758102,271.888916 
	C197.412125,270.104462 197.308609,268.257477 198.630463,266.408936 
	C203.920639,259.011047 204.603058,258.373444 206.994049,259.049072 
	C210.772720,260.116882 212.275787,262.736664 211.891510,266.980042 
z"/>
<path fill="#000000" opacity="1.000000" stroke="none" 
	d="
M165.866852,273.130524 
	C162.953262,274.000336 160.397919,273.989746 158.938293,271.449982 
	C157.650269,269.208771 158.191483,266.797546 160.359604,265.288422 
	C162.797455,263.591553 159.079178,262.065887 160.888779,260.128632 
	C163.835373,258.747742 167.450211,257.638184 170.417328,260.783569 
	C173.320206,263.860840 172.583771,268.026855 171.760406,271.661072 
	C171.057846,274.762024 168.061188,272.404510 165.866852,273.130524 
z"/>
<path fill="#000000" opacity="1.000000" stroke="none" 
	d="
M225.326477,259.430298 
	C227.310547,259.395599 228.928635,259.255676 230.330963,259.134430 
	C231.363602,259.803528 231.744476,260.823212 231.354080,261.431274 
	C229.170380,264.832550 226.734787,267.942413 226.309235,272.335785 
	C226.168350,273.790253 223.180649,273.827057 221.680344,272.286469 
	C220.282486,270.851135 220.701767,261.138550 222.133774,259.768158 
	C222.924789,259.011169 223.956207,259.086884 225.326477,259.430298 
z"/>
<path fill="#000000" opacity="1.000000" stroke="none" 
	d="
M213.497421,267.014954 
	C213.569778,263.496826 213.691757,260.368195 213.738998,257.238495 
	C213.764160,255.572495 214.206284,254.183884 216.087891,254.077255 
	C218.079041,253.964417 219.146637,255.099808 219.178131,257.100830 
	C219.243149,261.231354 219.292358,265.362305 219.315674,269.493256 
	C219.326355,271.385773 219.255814,273.186035 216.595596,273.291107 
	C213.668228,273.406708 213.465378,271.518951 213.468231,269.387756 
	C213.469131,268.726471 213.499237,268.065277 213.497421,267.014954 
z"/>
<path fill="#000000" opacity="1.000000" stroke="none" 
	d="
M195.861176,188.776978 
	C195.371307,187.638885 194.795731,186.838089 194.851456,186.083939 
	C195.316711,179.787933 195.295959,173.616150 192.945984,167.553009 
	C192.144135,165.484146 193.623657,163.278336 195.069855,161.654526 
	C199.783829,156.361542 199.728882,150.969452 195.896866,145.258072 
	C195.076935,144.035980 194.532669,142.564438 194.144058,141.131195 
	C193.393463,138.362869 193.094849,136.218140 197.256775,135.546494 
	C204.164688,134.431717 208.880966,122.250069 205.003006,116.404152 
	C203.004059,113.390831 200.489105,113.761047 198.349670,116.072762 
	C196.924500,117.612701 196.064102,119.675323 194.981216,121.454247 
	C188.394302,120.401001 184.526382,114.366348 185.911804,107.387520 
	C186.201447,105.928368 186.796097,104.529526 187.253464,103.103943 
	C189.656845,95.612572 189.250763,94.966835 181.487183,94.046402 
	C179.201660,90.590424 183.169098,86.645859 181.013443,83.272758 
	C179.788605,82.898857 179.011978,83.351440 178.587357,84.045860 
	C172.947464,93.269402 164.421234,92.503571 155.587204,90.783043 
	C152.168289,90.117180 148.809555,89.188782 145.248550,89.271996 
	C139.247452,89.412216 137.327499,90.574341 136.625320,96.565559 
	C135.890900,102.831848 135.739014,109.200043 136.829590,115.482483 
	C137.146301,117.306923 137.633606,119.091034 136.970825,120.886414 
	C132.376846,133.330719 138.114258,144.399765 141.894104,155.598526 
	C143.402740,160.068222 148.164734,159.933868 152.233231,159.904434 
	C160.326828,159.845871 161.164917,160.757294 160.044525,168.662842 
	C159.811142,170.309525 159.427734,171.934418 159.167358,173.577911 
	C158.328049,178.875732 155.166168,181.174011 149.884720,181.332642 
	C141.368744,181.588394 132.918182,181.096252 124.524872,179.713196 
	C107.223419,176.862259 94.709396,184.267593 89.650841,200.429901 
	C86.565216,210.288589 84.446518,211.988876 74.243294,211.289871 
	C66.563164,210.763733 59.777390,207.619812 54.018837,202.482605 
	C52.183300,200.845139 50.574722,198.922150 50.435207,196.225937 
	C50.847755,196.093430 51.235382,195.822556 51.445343,195.923004 
	C56.149204,198.173508 60.693939,198.649292 64.899643,194.840790 
	C69.161690,190.981262 69.372307,186.208023 68.010078,181.068436 
	C67.201057,178.016052 66.303337,174.978561 65.681030,171.886948 
	C63.789024,162.487564 66.914307,155.422333 75.076149,150.252060 
	C80.508881,146.810608 86.602692,145.052124 92.738792,143.526108 
	C103.541191,140.839584 108.933922,133.171387 112.142502,123.264793 
	C112.658699,121.671005 112.127464,120.354660 111.873283,118.897369 
	C109.351662,104.440239 112.165421,91.793449 124.252129,82.227295 
	C128.620224,78.770134 131.474548,73.974815 134.813965,69.618973 
	C143.855682,57.825230 155.745804,51.457108 170.625504,50.611691 
	C176.932938,50.253323 183.238312,49.750019 189.520309,49.083488 
	C195.505707,48.448429 199.426529,51.606861 202.389572,56.069813 
	C204.515762,59.272297 206.329483,60.864590 210.725189,59.956539 
	C216.117249,58.842667 220.219543,62.468346 223.344025,66.578903 
	C230.106674,75.475784 234.080963,85.589348 236.472229,96.495857 
	C239.612549,110.818764 237.981049,123.987724 228.272415,135.464737 
	C220.519424,144.629913 219.106934,154.552185 223.548691,165.671524 
	C227.600143,175.813797 226.201874,185.524078 220.310745,194.712814 
	C218.598007,197.384308 216.566025,198.515274 213.662079,197.229660 
	C207.759811,194.616669 201.928589,191.843216 195.861176,188.776978 
z"/>
</svg>