<svg version="1.1" id="Layer_1" xmlns="http://www.w3.org/2000/svg" xmlns:xlink="http://www.w3.org/1999/xlink" x="0px" y="0px"
	 width="100%" viewBox="0 0 827 677" enable-background="new 0 0 827 677" xml:space="preserve">
<path fill="#000000" opacity="1.000000" stroke="none" 
	d="
M433.000000,678.000000 
	C288.666656,678.000000 144.833328,678.000000 1.000000,678.000000 
	C1.000000,452.333344 1.000000,226.666672 1.000000,1.000000 
	C276.666656,1.000000 552.333313,1.000000 828.000000,1.000000 
	C828.000000,226.666672 828.000000,452.333344 828.000000,678.000000 
	C696.500000,678.000000 565.000000,678.000000 433.000000,678.000000 
M67.774780,420.292908 
	C65.714027,422.095886 63.653275,423.898865 61.592522,425.701813 
	C63.209675,426.902039 63.980354,426.992249 64.751053,426.992432 
	C96.082054,427.000000 127.413445,427.060699 158.743210,426.863678 
	C160.857559,426.850372 163.401657,425.334503 165.001450,423.760712 
	C191.019165,398.165649 217.110901,372.640503 242.778656,346.696655 
	C262.754425,326.506012 286.558563,316.870789 314.932922,316.950195 
	C400.259247,317.189056 485.586670,317.058472 570.913452,316.926666 
	C573.432251,316.922760 576.647156,316.006592 578.359436,314.319885 
	C598.541931,294.438568 618.503052,274.332520 638.502930,254.266098 
	C639.330444,253.435791 639.964844,252.413116 641.062378,250.999527 
	C638.110657,250.999527 635.950195,250.999527 633.789795,250.999527 
	C521.464844,250.999512 409.139709,251.099045 296.814911,250.945190 
	C257.808197,250.891769 224.771759,264.462646 197.159744,292.009430 
	C154.332672,334.735291 111.254814,377.209747 67.774780,420.292908 
M407.500366,328.428192 
	C374.345123,328.428528 341.189880,328.414307 308.034637,328.434845 
	C289.333984,328.446442 273.142548,334.835175 259.824738,347.999023 
	C234.348892,373.180389 208.982849,398.472839 183.588531,423.736542 
	C182.755295,424.565460 182.110245,425.583618 180.992310,427.002380 
	C210.934067,427.002380 240.082626,427.044586 269.230225,426.894409 
	C270.925018,426.885681 272.958832,425.673004 274.244690,424.416595 
	C281.393768,417.431763 288.513397,410.403748 295.350800,403.116302 
	C303.967346,393.932587 314.311737,389.796021 326.950989,389.840240 
	C384.263550,390.040833 441.577271,389.964722 498.890076,389.802826 
	C501.358673,389.795837 504.446625,388.592163 506.191620,386.874634 
	C524.476868,368.877167 542.549500,350.663574 560.668884,332.497681 
	C561.673340,331.490631 562.570557,330.376587 564.304565,328.428253 
	C511.659637,328.428253 460.080017,328.428253 407.500366,328.428192 
M561.865112,347.364929 
	C535.578247,373.513031 509.291412,399.661102 482.038452,426.770203 
	C484.572998,426.903259 485.503021,426.994568 486.433075,426.994781 
	C520.597534,427.002197 554.762268,427.054535 588.925781,426.873322 
	C591.055908,426.862030 593.668701,425.503784 595.230103,423.944305 
	C651.476074,367.767975 707.624756,311.494171 763.776794,255.223877 
	C764.879883,254.118484 765.863342,252.893799 767.548218,250.998520 
	C764.774719,250.998520 763.001099,250.998520 761.227478,250.998520 
	C728.729614,250.998520 696.231262,251.074295 663.734314,250.901306 
	C659.732422,250.880020 656.951172,251.981323 654.144714,254.809265 
	C623.622681,285.565155 592.976685,316.197998 561.865112,347.364929 
M671.272522,412.596802 
	C670.781555,414.296265 670.290588,415.995697 669.412903,419.033691 
	C668.267456,415.027527 667.490906,412.350769 666.737244,409.667633 
	C665.050842,403.663361 664.740540,403.489136 658.059753,405.222534 
	C658.059753,411.571899 657.915955,418.035278 658.202515,424.479492 
	C658.249878,425.542969 660.182556,426.522614 661.243958,427.540985 
	C661.710266,427.232147 662.176514,426.923309 662.642761,426.614502 
	C662.642761,422.710815 662.642761,418.807159 662.642761,414.903503 
	C664.634399,418.015930 665.363892,421.356537 666.529419,424.537415 
	C666.912842,425.583954 668.428650,426.862061 669.419556,426.856018 
	C670.393005,426.850189 671.842712,425.527679 672.234802,424.468750 
	C673.412476,421.288116 674.176025,417.954163 675.101196,414.680054 
	C676.138367,417.379089 676.118103,419.938263 676.142700,422.497040 
	C676.189026,427.320221 676.199768,427.320129 680.476929,426.179047 
	C680.476929,419.096222 680.476929,412.023407 680.476929,405.024200 
	C673.631958,403.659515 673.631958,403.659515 671.272522,412.596802 
M636.867004,405.658997 
	C637.698486,406.535492 638.585144,408.207520 639.352234,408.154388 
	C643.206421,407.887451 643.749512,409.918610 643.634766,413.060608 
	C643.471252,417.536652 643.593262,422.023102 643.593262,426.662903 
	C645.294006,426.662903 646.659729,426.662903 648.252563,426.662903 
	C648.252563,422.660339 648.546265,418.974579 648.181274,415.355316 
	C647.679016,410.374969 648.591858,407.072083 655.263489,407.836212 
	C654.633179,406.300537 653.833923,404.545898 653.011353,404.534882 
	C647.735596,404.463928 642.454590,404.775604 636.867004,405.658997 
z"/>
<path fill="#FF0000" opacity="1.000000" stroke="none" 
	d="
M68.029022,420.041870 
	C111.254814,377.209747 154.332672,334.735291 197.159744,292.009430 
	C224.771759,264.462646 257.808197,250.891769 296.814911,250.945190 
	C409.139709,251.099045 521.464844,250.999512 633.789795,250.999527 
	C635.950195,250.999527 638.110657,250.999527 641.062378,250.999527 
	C639.964844,252.413116 639.330444,253.435791 638.502930,254.266098 
	C618.503052,274.332520 598.541931,294.438568 578.359436,314.319885 
	C576.647156,316.006592 573.432251,316.922760 570.913452,316.926666 
	C485.586670,317.058472 400.259247,317.189056 314.932922,316.950195 
	C286.558563,316.870789 262.754425,326.506012 242.778656,346.696655 
	C217.110901,372.640503 191.019165,398.165649 165.001450,423.760712 
	C163.401657,425.334503 160.857559,426.850372 158.743210,426.863678 
	C127.413445,427.060699 96.082054,427.000000 64.751053,426.992432 
	C63.980354,426.992249 63.209675,426.902039 61.592522,425.701813 
	C63.653275,423.898865 65.714027,422.095886 68.029022,420.041870 
z"/>
<path fill="#FD0000" opacity="1.000000" stroke="none" 
	d="
M408.000366,328.428223 
	C460.080017,328.428253 511.659637,328.428253 564.304565,328.428253 
	C562.570557,330.376587 561.673340,331.490631 560.668884,332.497681 
	C542.549500,350.663574 524.476868,368.877167 506.191620,386.874634 
	C504.446625,388.592163 501.358673,389.795837 498.890076,389.802826 
	C441.577271,389.964722 384.263550,390.040833 326.950989,389.840240 
	C314.311737,389.796021 303.967346,393.932587 295.350800,403.116302 
	C288.513397,410.403748 281.393768,417.431763 274.244690,424.416595 
	C272.958832,425.673004 270.925018,426.885681 269.230225,426.894409 
	C240.082626,427.044586 210.934067,427.002380 180.992310,427.002380 
	C182.110245,425.583618 182.755295,424.565460 183.588531,423.736542 
	C208.982849,398.472839 234.348892,373.180389 259.824738,347.999023 
	C273.142548,334.835175 289.333984,328.446442 308.034637,328.434845 
	C341.189880,328.414307 374.345123,328.428528 408.000366,328.428223 
z"/>
<path fill="#FE0000" opacity="1.000000" stroke="none" 
	d="
M562.114807,347.114655 
	C592.976685,316.197998 623.622681,285.565155 654.144714,254.809265 
	C656.951172,251.981323 659.732422,250.880020 663.734314,250.901306 
	C696.231262,251.074295 728.729614,250.998520 761.227478,250.998520 
	C763.001099,250.998520 764.774719,250.998520 767.548218,250.998520 
	C765.863342,252.893799 764.879883,254.118484 763.776794,255.223877 
	C707.624756,311.494171 651.476074,367.767975 595.230103,423.944305 
	C593.668701,425.503784 591.055908,426.862030 588.925781,426.873322 
	C554.762268,427.054535 520.597534,427.002197 486.433075,426.994781 
	C485.503021,426.994568 484.572998,426.903259 482.038452,426.770203 
	C509.291412,399.661102 535.578247,373.513031 562.114807,347.114655 
z"/>
<path fill="#E60000" opacity="1.000000" stroke="none" 
	d="
M671.411255,412.224762 
	C673.631958,403.659515 673.631958,403.659515 680.476929,405.024200 
	C680.476929,412.023407 680.476929,419.096222 680.476929,426.179047 
	C676.199768,427.320129 676.189026,427.320221 676.142700,422.497040 
	C676.118103,419.938263 676.138367,417.379089 675.101196,414.680054 
	C674.176025,417.954163 673.412476,421.288116 672.234802,424.468750 
	C671.842712,425.527679 670.393005,426.850189 669.419556,426.856018 
	C668.428650,426.862061 666.912842,425.583954 666.529419,424.537415 
	C665.363892,421.356537 664.634399,418.015930 662.642761,414.903503 
	C662.642761,418.807159 662.642761,422.710815 662.642761,426.614502 
	C662.176514,426.923309 661.710266,427.232147 661.243958,427.540985 
	C660.182556,426.522614 658.249878,425.542969 658.202515,424.479492 
	C657.915955,418.035278 658.059753,411.571899 658.059753,405.222534 
	C664.740540,403.489136 665.050842,403.663361 666.737244,409.667633 
	C667.490906,412.350769 668.267456,415.027527 669.412903,419.033691 
	C670.290588,415.995697 670.781555,414.296265 671.411255,412.224762 
z"/>
<path fill="#EF0000" opacity="1.000000" stroke="none" 
	d="
M637.021179,405.310242 
	C642.454590,404.775604 647.735596,404.463928 653.011353,404.534882 
	C653.833923,404.545898 654.633179,406.300537 655.263489,407.836212 
	C648.591858,407.072083 647.679016,410.374969 648.181274,415.355316 
	C648.546265,418.974579 648.252563,422.660339 648.252563,426.662903 
	C646.659729,426.662903 645.294006,426.662903 643.593262,426.662903 
	C643.593262,422.023102 643.471252,417.536652 643.634766,413.060608 
	C643.749512,409.918610 643.206421,407.887451 639.352234,408.154388 
	C638.585144,408.207520 637.698486,406.535492 637.021179,405.310242 
z"/>
</svg>