<svg version="1.1" id="Layer_1" xmlns="http://www.w3.org/2000/svg" xmlns:xlink="http://www.w3.org/1999/xlink" x="0px" y="0px"
	 width="100%" viewBox="0 0 220 220" enable-background="new 0 0 220 220" xml:space="preserve">
<path fill="#FFFFFE" opacity="1.000000" stroke="none" 
	d="
M97.000000,221.000000 
	C64.666672,221.000000 32.833336,221.000000 1.000004,221.000000 
	C1.000003,147.666672 1.000003,74.333344 1.000001,1.000014 
	C74.333321,1.000009 147.666641,1.000009 220.999969,1.000005 
	C220.999985,74.333321 220.999985,147.666641 221.000000,220.999969 
	C179.833328,221.000000 138.666672,221.000000 97.000000,221.000000 
M86.209274,148.996857 
	C84.807716,149.060287 83.406158,149.123718 82.004601,149.187149 
	C82.056877,149.529709 82.109161,149.872269 82.161438,150.214828 
	C83.774391,149.809891 85.387352,149.404953 87.596558,149.000443 
	C88.124985,148.915970 88.653419,148.831497 89.181847,148.747009 
	C89.128563,148.527634 89.075279,148.308243 89.021988,148.088852 
	C88.347954,148.392563 87.673912,148.696289 86.209274,148.996857 
M54.556355,149.587845 
	C59.063759,150.700455 62.766720,150.770721 62.175133,144.331650 
	C62.064018,143.122208 62.818565,141.833237 63.887085,140.403000 
	C65.306107,142.442368 66.725128,144.481735 67.852249,146.821899 
	C67.877281,146.998367 67.902321,147.174835 67.927353,147.351303 
	C68.044975,147.108429 68.162590,146.865570 69.066246,146.470398 
	C70.346298,146.600433 71.626358,146.730469 73.926987,146.964188 
	C71.149597,143.489151 69.192780,141.040802 67.235954,138.592438 
	C67.671936,138.759003 68.107918,138.925568 68.543900,139.092133 
	C69.769623,136.252945 72.261253,133.259506 71.938255,130.609055 
	C71.389603,126.106880 66.940010,126.112007 63.199440,126.104652 
	C60.923309,126.100174 58.647163,126.103828 56.247059,126.103828 
	C56.247059,133.366669 56.247059,140.089539 56.247059,146.821396 
	C61.198776,147.414841 59.061836,143.810760 59.626705,141.858215 
	C59.920116,140.844009 60.351974,139.869858 60.721283,138.877609 
	C61.511806,139.425659 62.302330,139.973724 62.369293,140.958588 
	C61.933475,141.594864 61.043324,142.303741 61.131615,142.856262 
	C62.091076,148.860474 58.703194,149.656998 54.003338,148.060028 
	C54.003338,140.409180 54.003338,132.758316 54.003338,125.107468 
	C52.998016,128.545166 52.872238,131.989746 53.029095,135.421402 
	C53.236259,139.953766 53.664974,144.475998 54.556355,149.587845 
M50.126945,114.538857 
	C53.418381,113.026619 56.709816,111.514381 60.008850,110.755058 
	C60.924427,112.052399 58.078346,114.889076 62.223072,115.579567 
	C66.233459,120.130646 70.526978,123.311920 76.695808,119.015572 
	C77.572227,118.405174 79.100197,118.709755 79.945007,118.079430 
	C81.160683,117.172386 82.299881,115.918938 82.908760,114.560936 
	C83.157021,114.007217 81.813103,112.842453 81.401619,111.867851 
	C80.635818,110.054047 80.022491,108.175873 79.393860,106.456238 
	C82.984871,106.456238 85.411316,106.456238 87.413582,106.456238 
	C86.508476,109.625351 85.546371,112.994049 84.466476,116.775154 
	C86.784630,117.323143 88.520653,117.733528 89.884476,118.746223 
	C89.870972,119.702438 89.482895,120.884781 89.902351,121.579620 
	C93.760437,127.970520 97.530113,129.542328 105.282944,128.069550 
	C104.786247,121.229225 109.415733,123.576897 112.964676,124.869781 
	C112.976982,129.866943 112.996864,134.864090 112.999939,139.861252 
	C113.005531,148.951950 113.001305,148.943787 103.692970,149.011963 
	C102.503052,149.020676 101.314133,149.167328 100.124756,149.250076 
	C103.611778,149.991730 107.080902,149.889923 110.540779,150.025009 
	C113.152405,150.126999 114.148628,149.052444 114.020058,146.493744 
	C113.894836,144.001648 113.761787,141.463409 114.115273,139.015182 
	C114.271126,137.935760 115.621414,137.028793 116.429420,136.043533 
	C117.284630,136.982040 118.735664,137.838669 118.878067,138.875107 
	C119.237579,141.491791 118.839783,144.205780 119.096840,146.846573 
	C119.200798,147.914536 120.224541,149.772964 120.820900,149.769455 
	C124.546822,149.747574 128.270264,149.300690 132.696548,148.981796 
	C133.113419,148.812332 133.530304,148.642853 133.947174,148.473373 
	C133.479462,148.111908 133.011749,147.750458 132.887482,146.694748 
	C137.177979,144.920364 136.715317,141.050629 137.650436,137.038040 
	C138.384964,134.819687 139.119476,132.601334 139.897980,130.250153 
	C141.551773,130.081573 143.267456,129.906693 144.983154,129.731812 
	C144.975922,129.523407 144.968689,129.314987 144.961456,129.106583 
	C142.427719,129.106583 139.893982,129.106583 136.929764,129.106583 
	C136.929764,131.876129 136.929764,134.663010 136.197235,137.646622 
	C135.799683,136.348923 134.886124,134.961121 135.094269,133.769180 
	C135.976013,128.719742 134.497162,126.452126 129.472473,126.132332 
	C126.907852,125.969124 124.324272,126.103745 121.779572,126.103745 
	C121.779572,133.455917 121.779572,140.111969 121.779572,146.790024 
	C125.638794,146.972977 129.081055,147.136169 132.221146,148.139359 
	C132.148956,148.428024 132.076782,148.716690 131.077805,149.004913 
	C128.931274,149.003983 126.761887,148.803375 124.643234,149.045929 
	C120.868828,149.478088 119.777336,147.918671 119.918205,144.264114 
	C120.178780,137.504135 120.002449,130.727295 120.921349,123.787544 
	C124.251419,123.837219 127.755135,123.246346 130.869781,124.090675 
	C135.251724,125.278549 137.352341,123.624794 138.887283,119.833702 
	C137.769974,119.209702 136.702576,118.613579 136.459320,117.986824 
	C138.222824,117.668663 139.986328,117.350502 141.912338,117.003029 
	C140.781464,113.146416 139.744644,109.610527 138.736145,106.171265 
	C141.093658,106.406563 143.676971,106.664398 147.279617,107.023972 
	C146.673294,108.392807 146.364258,110.029739 145.407944,111.073830 
	C142.508621,114.239265 143.113846,116.904327 147.145950,118.188133 
	C149.802673,119.034019 152.380157,120.128708 155.101959,121.900490 
	C155.430862,124.063736 155.759750,126.226990 156.085449,128.369186 
	C148.573242,129.578110 147.330536,132.327606 150.250732,140.684555 
	C150.250732,137.282928 150.250732,133.881302 150.250732,130.394409 
	C152.658630,130.088898 154.573471,129.845932 156.470520,129.605240 
	C156.914047,127.622498 157.294769,125.920540 157.721619,124.012375 
	C161.504150,124.012375 164.984344,123.933334 168.451996,124.106026 
	C168.919022,124.129280 169.322922,125.420029 168.922958,125.997116 
	C167.981216,126.716827 166.256271,127.402527 166.223312,128.161697 
	C165.987976,133.580353 165.943039,139.022949 166.256714,144.433624 
	C166.306381,145.290543 168.467987,146.025040 170.239182,147.250153 
	C169.424622,147.832306 168.637558,148.865005 167.790619,148.916702 
	C164.551468,149.114441 161.293045,148.996613 158.041824,148.996613 
	C161.504074,149.998489 164.966812,149.863602 168.414200,150.036011 
	C171.939316,150.212326 173.151199,148.627899 173.032669,145.261429 
	C172.874603,140.772324 172.994751,136.273453 172.994385,131.778778 
	C172.993637,122.669586 173.758652,122.967331 164.470566,122.886772 
	C162.918167,122.873306 161.378403,121.404190 160.021759,119.959778 
	C161.757935,118.323654 163.494095,116.687523 165.806488,115.268852 
	C166.447189,113.664383 167.087906,112.059914 167.510025,111.002853 
	C169.232330,110.271759 170.620316,109.682571 172.724838,108.975136 
	C173.740692,108.552139 174.727478,107.930550 175.782654,107.776131 
	C176.483536,107.673561 177.459503,108.054146 177.985474,108.558983 
	C178.478012,109.031731 178.785034,110.577278 178.757202,110.588188 
	C174.167725,112.387230 178.168488,113.705406 179.091629,115.875008 
	C182.470856,121.488983 187.199570,117.471428 191.382950,117.750259 
	C191.382950,117.750259 191.416718,117.592163 191.209106,118.356041 
	C195.649124,120.572098 199.956467,123.164948 204.600967,124.800308 
	C206.231354,125.374390 210.016266,124.060516 210.460297,122.786949 
	C211.135727,120.849625 210.515549,117.405540 209.078308,116.027466 
	C206.770676,113.814857 203.345627,112.767654 200.392776,111.227966 
	C200.322998,111.372093 200.253235,111.516212 200.183472,111.660332 
	C197.643829,110.012123 195.104187,108.363914 192.514542,106.683250 
	C192.046249,102.015457 195.729568,101.762817 199.143097,100.960068 
	C204.511810,99.697510 207.375214,94.351601 205.174301,89.543793 
	C204.132645,87.268349 202.453613,85.284676 201.683960,84.113327 
	C203.584091,81.171860 205.471909,78.641472 206.849899,75.858627 
	C207.224823,75.101463 206.063370,73.583542 205.607040,72.414772 
	C204.402451,72.939400 203.197876,73.464027 201.220230,74.084007 
	C199.612457,74.416191 197.998291,74.720505 196.398224,75.086388 
	C193.097275,75.841202 190.758224,77.918373 191.183197,81.287819 
	C191.596939,84.568108 193.134262,87.697136 197.752182,87.251038 
	C197.752182,87.251038 197.925690,87.433022 197.534317,88.086411 
	C197.546661,89.789597 198.088684,92.696480 197.471130,92.968216 
	C195.683365,93.754906 193.429398,93.587791 191.358505,93.586922 
	C190.060074,93.586380 188.761826,93.210732 187.209717,92.844589 
	C187.209717,92.844589 187.008286,92.623138 187.443237,91.968704 
	C187.070084,91.275673 186.864716,90.193558 186.298096,89.949226 
	C179.965027,87.218384 173.600327,84.555267 167.179413,82.039108 
	C166.071762,81.605042 164.661713,81.942627 163.230301,81.759171 
	C163.230301,81.759171 163.056686,81.607849 163.466400,80.940613 
	C160.761200,79.344673 157.925186,77.932388 155.376434,76.116814 
	C148.887024,71.494148 142.917542,72.665665 137.243896,77.475403 
	C134.890350,79.470573 132.951111,79.100174 130.566864,77.418015 
	C128.480545,75.946075 126.084663,74.620949 123.631577,74.010979 
	C112.578400,71.262543 102.240005,72.980637 92.973839,80.092293 
	C90.877724,78.525078 89.174347,76.853035 87.139290,75.862236 
	C85.644089,75.134270 83.714508,75.298523 81.166191,75.107689 
	C79.818573,75.181282 78.470963,75.254875 76.777504,74.729568 
	C72.688133,76.167992 68.572983,77.541283 64.545471,79.135941 
	C64.095207,79.314217 64.142380,80.748848 63.688652,81.914040 
	C63.688652,81.914040 63.281425,81.986641 62.949730,81.575150 
	C62.868847,81.659416 62.704472,81.775108 62.722218,81.822250 
	C62.783440,81.984894 62.908207,82.123619 62.922920,82.756805 
	C62.922920,82.756805 62.525925,83.048920 61.790470,82.450439 
	C59.028736,83.060654 56.196716,83.457237 53.523571,84.336708 
	C50.386745,85.368729 47.240593,86.561363 44.384090,88.186371 
	C42.640358,89.178337 41.434341,91.115517 39.784050,92.846016 
	C39.784050,92.846016 39.530647,93.002090 38.882381,92.470985 
	C37.439667,93.042984 35.973499,93.562645 34.558594,94.196701 
	C30.143732,96.175117 28.311588,94.941147 28.638323,90.234901 
	C28.677898,89.664864 28.259102,89.063011 28.289131,88.161896 
	C28.289131,88.161896 28.669476,88.062813 29.059826,88.445618 
	C29.143740,88.358551 29.311235,88.250740 29.295752,88.188332 
	C29.250917,88.007599 29.132544,87.845108 29.153975,87.324425 
	C29.153975,87.324425 29.447247,87.101875 30.109200,87.488739 
	C34.000935,86.777008 36.031601,84.133186 35.810635,80.494102 
	C35.589825,76.857689 32.855801,75.281860 29.253334,74.908424 
	C27.688593,74.746223 26.240900,73.655281 24.680870,73.180672 
	C23.534473,72.831902 21.857794,72.248985 21.202425,72.765816 
	C20.390491,73.406113 19.722620,75.444221 20.159126,76.232384 
	C21.675373,78.970169 23.696440,81.428368 25.618969,84.123970 
	C25.975658,83.766075 25.651104,83.955826 25.529812,84.234161 
	C24.077457,87.566879 21.441462,90.946030 21.532001,94.246742 
	C21.645535,98.385658 24.898800,101.003647 29.762241,101.237663 
	C33.200520,101.403099 34.628288,104.085777 34.490326,106.416534 
	C31.433479,108.589691 29.066303,110.272545 26.080500,112.395195 
	C22.016537,111.677086 18.261860,113.661041 16.425606,118.247772 
	C14.903675,122.049362 16.326237,124.370628 20.241516,125.015030 
	C26.221533,125.999260 30.308912,121.645699 35.295994,119.857048 
	C35.618980,119.741203 35.492950,118.373405 35.624477,117.727234 
	C35.624477,117.727234 35.650211,117.581978 36.513241,117.842049 
	C38.288261,118.160126 40.064964,118.748268 41.837936,118.737221 
	C45.034016,118.717308 48.312885,118.482178 49.371555,114.378525 
	C49.371555,114.378525 49.413330,114.241058 50.126945,114.538857 
M75.998390,136.548386 
	C74.620522,141.326477 76.317108,144.779114 80.772919,146.687134 
	C84.888084,148.449280 88.644707,146.858002 92.277046,141.604507 
	C87.776672,140.925446 82.259613,148.005157 78.903664,139.860886 
	C83.644180,139.860886 87.761971,139.860886 91.951942,139.860886 
	C92.304626,135.690750 90.659470,133.056259 87.029922,131.922318 
	C82.531555,130.516922 78.846443,131.778778 75.998390,136.548386 
M100.556458,147.057953 
	C103.915848,147.057953 107.275238,147.057953 111.102837,147.057953 
	C111.102837,141.873398 111.264984,137.098602 111.029472,132.343491 
	C110.923256,130.198944 110.024590,128.093628 109.485481,125.970512 
	C108.709839,127.869965 107.934196,129.769424 107.126938,131.746277 
	C100.975861,130.533752 97.749809,131.644028 95.839424,135.893478 
	C93.983368,140.022064 95.219490,143.413116 100.556458,147.057953 
M144.023361,136.561310 
	C143.476242,134.883392 145.591003,131.307755 140.851013,132.392410 
	C140.851013,135.599716 140.736420,138.758438 140.878540,141.905579 
	C141.079605,146.358078 144.178162,147.124542 147.851471,147.185074 
	C151.535370,147.245773 154.632919,146.545212 154.966644,142.108551 
	C155.153656,139.622406 155.166962,137.103729 154.985107,134.619720 
	C154.920822,133.741470 154.045288,132.922592 153.540115,132.076614 
	C152.981339,132.875946 152.039703,133.629501 151.937607,134.483429 
	C151.662354,136.785980 152.124847,139.234100 151.533676,141.418549 
	C151.212524,142.605286 149.276596,144.205353 148.184509,144.121155 
	C146.771027,144.012161 145.126968,142.647659 144.241501,141.367630 
	C143.607803,140.451553 144.057098,138.786316 144.023361,136.561310 
M162.457672,142.153214 
	C162.457550,137.671356 162.585266,133.183121 162.361572,128.712448 
	C162.309845,127.678413 161.056808,126.704491 160.356567,125.702904 
	C159.919403,125.981308 159.482239,126.259712 159.045074,126.538116 
	C159.045074,132.166962 158.955917,137.798401 159.118286,143.422546 
	C159.151840,144.584885 160.121460,145.720184 160.659637,146.867950 
	C161.259003,145.597000 161.858353,144.326065 162.457672,142.153214 
M71.929665,150.000778 
	C73.252296,149.935059 74.574928,149.869354 75.897560,149.803650 
	C75.871559,149.503418 75.845566,149.203171 75.819572,148.902939 
	C73.910454,149.083878 72.001335,149.264816 70.092216,149.445755 
	C70.301521,149.612946 70.495338,149.807938 70.726097,149.936661 
	C70.858932,150.010727 71.051582,149.977554 71.929665,150.000778 
M56.297226,123.428391 
	C56.010612,123.701324 55.723999,123.974251 55.437386,124.247177 
	C55.550941,124.365440 55.756519,124.593063 55.764759,124.586143 
	C56.067429,124.331497 56.351784,124.055092 56.297226,123.428391 
M60.520496,123.923492 
	C60.765751,123.778328 61.011009,123.633156 61.256268,123.487991 
	C61.003391,123.353668 60.689407,123.059258 60.513435,123.126419 
	C60.303391,123.206589 60.211536,123.596405 60.520496,123.923492 
M64.404839,144.479645 
	C64.404839,144.479645 64.523750,144.405914 64.404839,144.479645 
M78.606430,148.521393 
	C78.606430,148.521393 78.478218,148.602554 78.606430,148.521393 
z"/>
<path fill="#E61C34" opacity="1.000000" stroke="none" 
	d="
M90.256683,118.143906 
	C88.520653,117.733528 86.784630,117.323143 84.466476,116.775154 
	C85.546371,112.994049 86.508476,109.625351 87.413582,106.456238 
	C85.411316,106.456238 82.984871,106.456238 79.393860,106.456238 
	C80.022491,108.175873 80.635818,110.054047 81.401619,111.867851 
	C81.813103,112.842453 83.157021,114.007217 82.908760,114.560936 
	C82.299881,115.918938 81.160683,117.172386 79.945007,118.079430 
	C79.100197,118.709755 77.572227,118.405174 76.695808,119.015572 
	C70.526978,123.311920 66.233459,120.130646 62.149593,114.920685 
	C65.130447,112.519882 66.674606,114.287407 68.739578,116.394135 
	C69.722824,117.397270 72.578926,116.564667 74.586655,116.563629 
	C74.248001,115.001236 74.429726,112.885086 73.470200,111.983376 
	C70.899307,109.567429 67.946167,107.291199 63.585682,109.097931 
	C60.464813,109.044853 57.719269,109.076385 54.606697,109.042526 
	C52.667793,108.095413 51.095921,107.213692 49.548965,106.345947 
	C48.887402,107.795547 48.212608,109.274139 47.410370,111.031982 
	C48.538662,110.895462 49.336983,110.798866 50.251446,111.062263 
	C50.049503,112.361862 49.731419,113.301460 49.413330,114.241058 
	C49.413330,114.241058 49.371555,114.378525 48.993576,114.535995 
	C44.293800,115.656303 39.972008,116.619141 35.650211,117.581978 
	C35.650211,117.581978 35.624477,117.727234 35.273682,117.788116 
	C32.196644,119.148254 29.522448,120.577812 26.723707,121.695518 
	C25.166180,122.317528 23.409136,122.558533 21.723835,122.655540 
	C21.321178,122.678719 20.327627,121.072441 20.489902,120.844223 
	C21.405382,119.556747 22.482609,118.328392 23.708914,117.330963 
	C25.537739,115.843460 27.543530,114.574661 29.460508,113.194038 
	C30.794754,112.233116 31.977064,110.904526 33.456253,110.335739 
	C36.141888,109.303062 37.963867,108.323425 36.229389,104.978271 
	C35.426140,103.429108 35.303528,101.527023 34.867737,99.766350 
	C29.997128,99.608299 23.916388,100.245453 23.817335,94.060196 
	C23.753077,90.047722 27.267916,85.977936 29.353758,81.564262 
	C26.060163,80.977539 21.418282,80.547966 22.271181,74.689682 
	C25.009684,75.533569 27.649374,76.322037 30.272839,77.161224 
	C34.350307,78.465500 35.006439,81.526436 31.899605,84.667107 
	C31.089533,85.486000 30.265089,86.290672 29.447247,87.101875 
	C29.447247,87.101875 29.153975,87.324425 29.040472,87.565582 
	C28.926970,87.806747 28.669476,88.062813 28.669476,88.062813 
	C28.669476,88.062813 28.289131,88.161896 27.888329,88.488205 
	C27.308418,91.046211 26.166016,94.193001 27.195440,95.276657 
	C28.465673,96.613823 31.658407,96.837212 33.805275,96.424095 
	C35.857246,96.029213 37.633308,94.200531 39.530647,93.002090 
	C39.530647,93.002090 39.784050,92.846016 40.187454,92.615547 
	C47.902546,89.273026 55.214237,86.160973 62.525925,83.048920 
	C62.525925,83.048920 62.922920,82.756805 62.998474,82.458809 
	C63.074028,82.160812 63.281425,81.986641 63.281425,81.986641 
	C63.281425,81.986641 63.688652,81.914040 64.113983,81.623451 
	C68.734001,79.331398 72.928673,77.329941 77.123344,75.328476 
	C78.470963,75.254875 79.818573,75.181282 81.819740,75.318787 
	C86.642799,78.375938 90.812302,81.221992 94.988632,84.035721 
	C94.995445,84.003395 94.929619,84.009048 94.794601,84.319687 
	C95.104324,85.043846 95.549065,85.457359 96.301491,86.027969 
	C98.532944,89.184258 100.964752,91.978706 102.273354,95.225807 
	C104.892509,101.724800 106.896866,108.471550 109.440376,115.955536 
	C107.372231,118.485901 104.029922,118.686607 100.888496,115.471489 
	C97.091034,116.426018 93.673859,117.284966 90.256683,118.143906 
M45.765110,112.048828 
	C44.821198,112.569511 43.877285,113.090195 42.933376,113.610878 
	C43.264381,114.088486 43.595383,114.566093 43.926388,115.043701 
	C44.735317,114.116180 45.544247,113.188660 45.765110,112.048828 
z"/>
<path fill="#E61C34" opacity="1.000000" stroke="none" 
	d="
M154.993134,121.111984 
	C152.380157,120.128708 149.802673,119.034019 147.145950,118.188133 
	C143.113846,116.904327 142.508621,114.239265 145.407944,111.073830 
	C146.364258,110.029739 146.673294,108.392807 147.279617,107.023972 
	C143.676971,106.664398 141.093658,106.406563 138.736145,106.171265 
	C139.744644,109.610527 140.781464,113.146416 141.912338,117.003029 
	C139.986328,117.350502 138.222824,117.668663 135.773026,117.757439 
	C132.759689,117.132179 130.444580,116.585266 128.100876,116.399979 
	C126.801208,116.297211 125.453766,116.798698 123.747238,116.974464 
	C122.388206,116.965240 121.409782,117.009377 120.549057,117.048203 
	C121.636963,114.949760 122.697762,112.903641 123.915451,110.554871 
	C120.859375,112.248909 118.426247,113.597633 115.992661,114.977402 
	C115.992203,115.008438 116.054222,115.005577 116.124023,114.752800 
	C116.262062,114.339058 116.330284,114.178093 116.650063,113.809135 
	C119.142311,109.342377 121.382996,105.083611 123.924652,100.732986 
	C125.508751,96.439621 126.791885,92.238113 128.040024,88.022583 
	C128.005020,88.008560 128.045547,88.072166 128.330383,88.326614 
	C130.038040,87.048035 131.460892,85.514999 133.082886,83.773331 
	C133.208282,83.387115 133.134521,83.209534 133.031708,83.017113 
	C133.002655,83.002266 133.033707,83.059685 133.382904,83.104813 
	C136.058289,81.276512 138.154877,78.927551 140.774841,77.662605 
	C143.426788,76.382240 146.873596,75.077881 149.479034,75.736130 
	C154.198181,76.928413 158.550964,79.570831 163.056686,81.607849 
	C163.056686,81.607849 163.230301,81.759171 163.466919,82.141266 
	C168.102142,84.778305 172.488922,87.056992 176.911407,89.264076 
	C177.621292,89.618347 178.515182,89.582359 179.282028,89.847977 
	C181.867645,90.743568 184.434357,91.693794 187.008286,92.623138 
	C187.008286,92.623138 187.209717,92.844589 187.487381,93.195572 
	C189.307068,94.444565 190.813965,96.007446 192.399002,96.091164 
	C195.049133,96.231148 198.772797,96.359848 200.191833,94.803741 
	C202.401260,92.380898 200.677933,89.329063 197.925690,87.433022 
	C197.925690,87.433022 197.752182,87.251038 197.499023,86.907982 
	C195.909760,84.502022 194.573685,82.439125 193.237595,80.376221 
	C195.337616,79.135529 197.430771,77.882988 199.541061,76.660049 
	C200.373520,76.177643 201.244186,75.761185 202.421112,75.227760 
	C203.357544,74.921768 203.970306,74.702705 204.635834,74.464767 
	C205.935364,80.925034 200.176971,80.574089 196.222656,82.506531 
	C200.455933,86.281792 205.979355,89.701828 202.806412,95.300316 
	C201.141602,98.237762 196.174301,99.303497 191.822327,101.696091 
	C191.406082,104.367622 186.808487,110.015556 195.919846,110.687363 
	C196.171463,110.705917 196.523361,111.078117 196.610550,111.354233 
	C197.818283,115.178612 200.715515,116.883133 204.298004,118.130035 
	C205.184219,118.438484 205.441101,120.555077 205.987259,121.840500 
	C204.521362,122.177132 202.787598,123.184151 201.639481,122.725418 
	C198.111450,121.315796 194.807663,119.344902 191.416718,117.592163 
	C191.416718,117.592163 191.382950,117.750259 191.135162,117.423965 
	C186.922363,116.454834 182.957321,115.812004 178.992294,115.169167 
	C178.168488,113.705406 174.167725,112.387230 178.757202,110.588188 
	C178.785034,110.577278 178.478012,109.031731 177.985474,108.558983 
	C177.459503,108.054146 176.483536,107.673561 175.782654,107.776131 
	C174.727478,107.930550 173.740692,108.552139 172.007019,108.907356 
	C165.574860,109.422256 159.314896,106.488640 154.283951,111.327103 
	C153.177353,112.391350 152.038025,113.891098 151.894165,115.291054 
	C151.820984,116.003151 153.891541,117.541634 155.057480,117.610161 
	C156.305679,117.683533 157.959579,116.760933 158.853851,115.755081 
	C160.898132,113.455734 162.767197,112.330086 165.230255,115.051392 
	C163.494095,116.687523 161.757935,118.323654 159.537308,120.427521 
	C157.699615,120.967499 156.346375,121.039742 154.993134,121.111984 
M182.051666,112.551140 
	C181.494476,112.797569 180.937271,113.043991 180.380081,113.290421 
	C181.337234,113.745209 182.294403,114.199989 183.251556,114.654778 
	C183.046234,114.049919 182.840912,113.445061 182.051666,112.551140 
M192.554901,115.470093 
	C192.809540,115.531784 193.064178,115.593475 193.318817,115.655167 
	C193.155029,115.499878 192.991226,115.344589 192.554901,115.470093 
z"/>
<path fill="#FECD09" opacity="1.000000" stroke="none" 
	d="
M123.623688,100.824837 
	C121.382996,105.083611 119.142311,109.342377 116.332809,113.812088 
	C115.860733,114.350555 115.957474,114.678062 116.054222,115.005577 
	C116.054222,115.005577 115.992203,115.008438 115.996025,115.358734 
	C118.001945,120.507507 120.903816,119.760475 124.127853,117.027817 
	C125.453766,116.798698 126.801208,116.297211 128.100876,116.399979 
	C130.444580,116.585266 132.759689,117.132179 135.360962,117.772758 
	C136.702576,118.613579 137.769974,119.209702 138.887283,119.833702 
	C137.352341,123.624794 135.251724,125.278549 130.869781,124.090675 
	C127.755135,123.246346 124.251419,123.837219 120.087280,124.063416 
	C119.084305,127.148682 118.915405,129.958084 118.717216,133.254761 
	C117.186523,133.399002 115.689362,133.540085 114.342255,133.667023 
	C113.833527,130.010178 113.409782,126.964218 112.986038,123.918259 
	C109.415733,123.576897 104.786247,121.229225 105.282944,128.069550 
	C97.530113,129.542328 93.760437,127.970520 89.902351,121.579620 
	C89.482895,120.884781 89.870972,119.702438 90.070580,118.445068 
	C93.673859,117.284966 97.091034,116.426018 100.888496,115.471489 
	C104.029922,118.686607 107.372231,118.485901 109.440376,115.955536 
	C106.896866,108.471550 104.892509,101.724800 102.273354,95.225807 
	C100.964752,91.978706 98.532944,89.184258 96.299057,85.698669 
	C95.635834,84.811195 95.282730,84.410118 94.929619,84.009048 
	C94.929619,84.009048 94.995445,84.003395 95.052597,83.655190 
	C95.035622,82.994423 94.788506,82.545601 94.912056,82.388756 
	C103.155128,71.924576 126.409920,72.775070 132.788681,82.627815 
	C132.878479,82.766518 132.952393,82.915497 133.033707,83.059685 
	C133.033707,83.059685 133.002655,83.002266 132.763153,82.879120 
	C132.358231,82.870659 132.192810,82.985359 131.723755,83.230576 
	C130.295258,84.931458 129.170410,86.501816 128.045547,88.072166 
	C128.045547,88.072166 128.005020,88.008560 127.676468,88.039246 
	C123.950951,91.692177 122.827225,95.978172 123.623688,100.824837 
z"/>
<path fill="#FAF5F5" opacity="1.000000" stroke="none" 
	d="
M29.778225,87.295303 
	C30.265089,86.290672 31.089533,85.486000 31.899605,84.667107 
	C35.006439,81.526436 34.350307,78.465500 30.272839,77.161224 
	C27.649374,76.322037 25.009684,75.533569 22.271181,74.689682 
	C21.418282,80.547966 26.060163,80.977539 29.353758,81.564262 
	C27.267916,85.977936 23.753077,90.047722 23.817335,94.060196 
	C23.916388,100.245453 29.997128,99.608299 34.867737,99.766350 
	C35.303528,101.527023 35.426140,103.429108 36.229389,104.978271 
	C37.963867,108.323425 36.141888,109.303062 33.456253,110.335739 
	C31.977064,110.904526 30.794754,112.233116 29.460508,113.194038 
	C27.543530,114.574661 25.537739,115.843460 23.708914,117.330963 
	C22.482609,118.328392 21.405382,119.556747 20.489902,120.844223 
	C20.327627,121.072441 21.321178,122.678719 21.723835,122.655540 
	C23.409136,122.558533 25.166180,122.317528 26.723707,121.695518 
	C29.522448,120.577812 32.196644,119.148254 35.249336,117.718491 
	C35.492950,118.373405 35.618980,119.741203 35.295994,119.857048 
	C30.308912,121.645699 26.221533,125.999260 20.241516,125.015030 
	C16.326237,124.370628 14.903675,122.049362 16.425606,118.247772 
	C18.261860,113.661041 22.016537,111.677086 26.080500,112.395195 
	C29.066303,110.272545 31.433479,108.589691 34.490326,106.416534 
	C34.628288,104.085777 33.200520,101.403099 29.762241,101.237663 
	C24.898800,101.003647 21.645535,98.385658 21.532001,94.246742 
	C21.441462,90.946030 24.077457,87.566879 25.529812,84.234161 
	C25.651104,83.955826 25.975658,83.766075 25.618969,84.123970 
	C23.696440,81.428368 21.675373,78.970169 20.159126,76.232384 
	C19.722620,75.444221 20.390491,73.406113 21.202425,72.765816 
	C21.857794,72.248985 23.534473,72.831902 24.680870,73.180672 
	C26.240900,73.655281 27.688593,74.746223 29.253334,74.908424 
	C32.855801,75.281860 35.589825,76.857689 35.810635,80.494102 
	C36.031601,84.133186 34.000935,86.777008 29.778225,87.295303 
z"/>
<path fill="#FBF7F7" opacity="1.000000" stroke="none" 
	d="
M191.312912,117.974098 
	C194.807663,119.344902 198.111450,121.315796 201.639481,122.725418 
	C202.787598,123.184151 204.521362,122.177132 205.987259,121.840500 
	C205.441101,120.555077 205.184219,118.438484 204.298004,118.130035 
	C200.715515,116.883133 197.818283,115.178612 196.610550,111.354233 
	C196.523361,111.078117 196.171463,110.705917 195.919846,110.687363 
	C186.808487,110.015556 191.406082,104.367622 191.822327,101.696091 
	C196.174301,99.303497 201.141602,98.237762 202.806412,95.300316 
	C205.979355,89.701828 200.455933,86.281792 196.222656,82.506531 
	C200.176971,80.574089 205.935364,80.925034 204.635834,74.464767 
	C203.970306,74.702705 203.357544,74.921768 202.391602,74.896469 
	C202.023361,74.430946 202.008316,74.209801 201.993286,73.988655 
	C203.197876,73.464027 204.402451,72.939400 205.607040,72.414772 
	C206.063370,73.583542 207.224823,75.101463 206.849899,75.858627 
	C205.471909,78.641472 203.584091,81.171860 201.683960,84.113327 
	C202.453613,85.284676 204.132645,87.268349 205.174301,89.543793 
	C207.375214,94.351601 204.511810,99.697510 199.143097,100.960068 
	C195.729568,101.762817 192.046249,102.015457 192.514542,106.683250 
	C195.104187,108.363914 197.643829,110.012123 200.183472,111.660332 
	C200.253235,111.516212 200.322998,111.372093 200.392776,111.227966 
	C203.345627,112.767654 206.770676,113.814857 209.078308,116.027466 
	C210.515549,117.405540 211.135727,120.849625 210.460297,122.786949 
	C210.016266,124.060516 206.231354,125.374390 204.600967,124.800308 
	C199.956467,123.164948 195.649124,120.572098 191.312912,117.974098 
z"/>
<path fill="#E6222D" opacity="1.000000" stroke="none" 
	d="
M132.523300,147.299377 
	C129.081055,147.136169 125.638794,146.972977 121.779572,146.790024 
	C121.779572,140.111969 121.779572,133.455917 121.779572,126.103745 
	C124.324272,126.103745 126.907852,125.969124 129.472473,126.132332 
	C134.497162,126.452126 135.976013,128.719742 135.094269,133.769180 
	C134.886124,134.961121 135.799683,136.348923 136.607391,137.532745 
	C137.017532,137.418869 136.946625,137.486832 136.946625,137.486832 
	C136.715317,141.050629 137.177979,144.920364 132.725586,147.068237 
	C132.563675,147.441711 132.523300,147.299377 132.523300,147.299377 
M125.013512,140.453308 
	C125.709541,141.607025 126.438583,143.750824 127.095413,143.728912 
	C129.069733,143.663086 131.070618,142.871307 132.904266,142.023438 
	C133.135193,141.916641 132.735672,138.971878 132.101105,138.731079 
	C129.746368,137.837448 126.992149,136.202164 125.013512,140.453308 
M131.975342,130.655319 
	C129.845428,129.963043 127.715508,129.270782 125.335472,128.497208 
	C125.335472,131.300430 125.335472,133.007782 125.335472,134.715118 
	C125.742447,135.098343 126.149414,135.481552 126.556389,135.864761 
	C128.415726,134.404816 130.275070,132.944855 131.975342,130.655319 
z"/>
<path fill="#E51B27" opacity="1.000000" stroke="none" 
	d="
M68.144150,146.521103 
	C66.725128,144.481735 65.306107,142.442368 63.483673,140.507538 
	C63.080265,140.612076 63.092850,140.521774 63.092850,140.521774 
	C62.302330,139.973724 61.511806,139.425659 60.721283,138.877609 
	C60.351974,139.869858 59.920116,140.844009 59.626705,141.858215 
	C59.061836,143.810760 61.198776,147.414841 56.247059,146.821396 
	C56.247059,140.089539 56.247059,133.366669 56.247059,126.103828 
	C58.647163,126.103828 60.923309,126.100174 63.199440,126.104652 
	C66.940010,126.112007 71.389603,126.106880 71.938255,130.609055 
	C72.261253,133.259506 69.769623,136.252945 68.543900,139.092133 
	C68.107918,138.925568 67.671936,138.759003 67.235954,138.592438 
	C69.192780,141.040802 71.149597,143.489151 73.926987,146.964188 
	C71.626358,146.730469 70.346298,146.600433 68.621399,146.545013 
	C68.176544,146.619629 68.144150,146.521103 68.144150,146.521103 
M60.914787,129.112289 
	C60.349480,130.984390 59.784172,132.856491 59.110405,135.087769 
	C61.178051,135.188797 62.306862,135.579803 63.080307,135.215775 
	C65.031555,134.297394 66.822769,133.038971 68.678116,131.916809 
	C66.857468,130.969589 65.053696,129.987015 63.202778,129.103180 
	C62.803909,128.912720 62.235001,129.078323 60.914787,129.112289 
z"/>
<path fill="#FAF5F5" opacity="1.000000" stroke="none" 
	d="
M133.382904,83.104813 
	C132.952393,82.915497 132.878479,82.766518 132.788681,82.627815 
	C126.409920,72.775070 103.155128,71.924576 94.912056,82.388756 
	C94.788506,82.545601 95.035622,82.994423 95.045776,83.687515 
	C90.812302,81.221992 86.642799,78.375938 82.225891,75.297523 
	C83.714508,75.298523 85.644089,75.134270 87.139290,75.862236 
	C89.174347,76.853035 90.877724,78.525078 92.973839,80.092293 
	C102.240005,72.980637 112.578400,71.262543 123.631577,74.010979 
	C126.084663,74.620949 128.480545,75.946075 130.566864,77.418015 
	C132.951111,79.100174 134.890350,79.470573 137.243896,77.475403 
	C142.917542,72.665665 148.887024,71.494148 155.376434,76.116814 
	C157.925186,77.932388 160.761200,79.344673 163.261536,81.274231 
	C158.550964,79.570831 154.198181,76.928413 149.479034,75.736130 
	C146.873596,75.077881 143.426788,76.382240 140.774841,77.662605 
	C138.154877,78.927551 136.058289,81.276512 133.382904,83.104813 
z"/>
<path fill="#E61F2A" opacity="1.000000" stroke="none" 
	d="
M76.140533,136.208389 
	C78.846443,131.778778 82.531555,130.516922 87.029922,131.922318 
	C90.659470,133.056259 92.304626,135.690750 91.951942,139.860886 
	C87.761971,139.860886 83.644180,139.860886 78.903664,139.860886 
	C82.259613,148.005157 87.776672,140.925446 92.277046,141.604507 
	C88.644707,146.858002 84.888084,148.449280 80.772919,146.687134 
	C76.317108,144.779114 74.620522,141.326477 76.140533,136.208389 
z"/>
<path fill="#E51420" opacity="1.000000" stroke="none" 
	d="
M100.191917,146.945831 
	C95.219490,143.413116 93.983368,140.022064 95.839424,135.893478 
	C97.749809,131.644028 100.975861,130.533752 107.126938,131.746277 
	C107.934196,129.769424 108.709839,127.869965 109.485474,125.970512 
	C110.024590,128.093628 110.923256,130.198944 111.029472,132.343491 
	C111.264984,137.098602 111.102837,141.873398 111.102837,147.057953 
	C107.275238,147.057953 103.915848,147.057953 100.191917,146.945831 
M98.509323,137.213135 
	C97.483955,140.368942 98.208038,143.239304 101.489037,143.919418 
	C103.193268,144.272675 106.511230,142.910492 106.999718,141.562210 
	C107.647644,139.773865 106.917435,136.605362 105.567039,135.172684 
	C103.335045,132.804657 100.717804,133.998230 98.509323,137.213135 
z"/>
<path fill="#F3F1F1" opacity="1.000000" stroke="none" 
	d="
M155.047546,121.506241 
	C156.346375,121.039742 157.699615,120.967499 159.442825,120.751480 
	C161.378403,121.404190 162.918167,122.873306 164.470566,122.886772 
	C173.758652,122.967331 172.993637,122.669586 172.994385,131.778778 
	C172.994751,136.273453 172.874603,140.772324 173.032669,145.261429 
	C173.151199,148.627899 171.939316,150.212326 168.414200,150.036011 
	C164.966812,149.863602 161.504074,149.998489 158.041824,148.996613 
	C161.293045,148.996613 164.551468,149.114441 167.790619,148.916702 
	C168.637558,148.865005 169.424622,147.832306 169.990479,146.579163 
	C169.746536,139.313385 169.751297,132.718613 169.756058,126.123848 
	C169.322922,125.420029 168.919022,124.129280 168.451996,124.106026 
	C164.984344,123.933334 161.504150,124.012375 157.721619,124.012375 
	C157.294769,125.920540 156.914047,127.622498 156.470520,129.605240 
	C154.573471,129.845932 152.658630,130.088898 150.250732,130.394409 
	C150.250732,133.881302 150.250732,137.282928 150.250732,140.684555 
	C147.330536,132.327606 148.573242,129.578110 156.085449,128.369186 
	C155.759750,126.226990 155.430862,124.063736 155.047546,121.506241 
z"/>
<path fill="#E4101D" opacity="1.000000" stroke="none" 
	d="
M144.023285,137.008331 
	C144.057098,138.786316 143.607803,140.451553 144.241501,141.367630 
	C145.126968,142.647659 146.771027,144.012161 148.184509,144.121155 
	C149.276596,144.205353 151.212524,142.605286 151.533676,141.418549 
	C152.124847,139.234100 151.662354,136.785980 151.937607,134.483429 
	C152.039703,133.629501 152.981339,132.875946 153.540115,132.076614 
	C154.045288,132.922592 154.920822,133.741470 154.985107,134.619720 
	C155.166962,137.103729 155.153656,139.622406 154.966644,142.108551 
	C154.632919,146.545212 151.535370,147.245773 147.851471,147.185074 
	C144.178162,147.124542 141.079605,146.358078 140.878540,141.905579 
	C140.736420,138.758438 140.851013,135.599716 140.851013,132.392410 
	C145.591003,131.307755 143.476242,134.883392 144.023285,137.008331 
z"/>
<path fill="#F9EDEE" opacity="1.000000" stroke="none" 
	d="
M165.518372,115.160126 
	C162.767197,112.330086 160.898132,113.455734 158.853851,115.755081 
	C157.959579,116.760933 156.305679,117.683533 155.057480,117.610161 
	C153.891541,117.541634 151.820984,116.003151 151.894165,115.291054 
	C152.038025,113.891098 153.177353,112.391350 154.283951,111.327103 
	C159.314896,106.488640 165.574860,109.422256 171.648758,108.966476 
	C170.620316,109.682571 169.232330,110.271759 167.510025,111.002853 
	C167.087906,112.059914 166.447189,113.664383 165.518372,115.160126 
z"/>
<path fill="#F9EDEE" opacity="1.000000" stroke="none" 
	d="
M63.961006,109.182541 
	C67.946167,107.291199 70.899307,109.567429 73.470200,111.983376 
	C74.429726,112.885086 74.248001,115.001236 74.586655,116.563629 
	C72.578926,116.564667 69.722824,117.397270 68.739578,116.394135 
	C66.674606,114.287407 65.130447,112.519882 61.921593,114.656693 
	C58.078346,114.889076 60.924427,112.052399 60.359093,110.379333 
	C61.793224,109.729919 62.877117,109.456230 63.961006,109.182541 
z"/>
<path fill="#F1EFE7" opacity="1.000000" stroke="none" 
	d="
M112.975357,124.394020 
	C113.409782,126.964218 113.833527,130.010178 114.342255,133.667023 
	C115.689362,133.540085 117.186523,133.399002 118.717216,133.254761 
	C118.915405,129.958084 119.084305,127.148682 119.630661,124.148384 
	C120.002449,130.727295 120.178780,137.504135 119.918205,144.264114 
	C119.777336,147.918671 120.868828,149.478088 124.643234,149.045929 
	C126.761887,148.803375 128.931274,149.003983 131.538910,149.002457 
	C132.000000,149.000000 131.994522,148.994568 131.994522,148.994568 
	C128.270264,149.300690 124.546822,149.747574 120.820900,149.769455 
	C120.224541,149.772964 119.200798,147.914536 119.096840,146.846573 
	C118.839783,144.205780 119.237579,141.491791 118.878067,138.875107 
	C118.735664,137.838669 117.284630,136.982040 116.429428,136.043533 
	C115.621414,137.028793 114.271126,137.935760 114.115273,139.015182 
	C113.761787,141.463409 113.894836,144.001648 114.020058,146.493744 
	C114.148628,149.052444 113.152405,150.126999 110.540779,150.025009 
	C107.080902,149.889923 103.611778,149.991730 100.124756,149.250076 
	C101.314133,149.167328 102.503052,149.020676 103.692970,149.011963 
	C113.001305,148.943787 113.005531,148.951950 112.999939,139.861252 
	C112.996864,134.864090 112.976982,129.866943 112.975357,124.394020 
z"/>
<path fill="#E7323D" opacity="1.000000" stroke="none" 
	d="
M169.339508,126.060486 
	C169.751297,132.718613 169.746536,139.313385 169.697479,146.362152 
	C168.467987,146.025040 166.306381,145.290543 166.256714,144.433624 
	C165.943039,139.022949 165.987976,133.580353 166.223312,128.161697 
	C166.256271,127.402527 167.981216,126.716827 169.339508,126.060486 
z"/>
<path fill="#E4101D" opacity="1.000000" stroke="none" 
	d="
M162.457703,142.604156 
	C161.858353,144.326065 161.259003,145.597000 160.659637,146.867950 
	C160.121460,145.720184 159.151840,144.584885 159.118286,143.422546 
	C158.955917,137.798401 159.045074,132.166962 159.045074,126.538116 
	C159.482239,126.259712 159.919403,125.981308 160.356567,125.702904 
	C161.056808,126.704491 162.309845,127.678413 162.361572,128.712448 
	C162.585266,133.183121 162.457550,137.671356 162.457703,142.604156 
z"/>
<path fill="#FAF5F5" opacity="1.000000" stroke="none" 
	d="
M187.225769,92.295921 
	C184.434357,91.693794 181.867645,90.743568 179.282028,89.847977 
	C178.515182,89.582359 177.621292,89.618347 176.911407,89.264076 
	C172.488922,87.056992 168.102142,84.778305 163.547455,82.223564 
	C164.661713,81.942627 166.071762,81.605042 167.179413,82.039108 
	C173.600327,84.555267 179.965027,87.218384 186.298096,89.949226 
	C186.864716,90.193558 187.070084,91.275673 187.225769,92.295921 
z"/>
<path fill="#FAF5F5" opacity="1.000000" stroke="none" 
	d="
M62.158195,82.749680 
	C55.214237,86.160973 47.902546,89.273026 40.288834,92.506622 
	C41.434341,91.115517 42.640358,89.178337 44.384090,88.186371 
	C47.240593,86.561363 50.386745,85.368729 53.523571,84.336708 
	C56.196716,83.457237 59.028736,83.060654 62.158195,82.749680 
z"/>
<path fill="#FAF5F5" opacity="1.000000" stroke="none" 
	d="
M197.730011,87.759720 
	C200.677933,89.329063 202.401260,92.380898 200.191833,94.803741 
	C198.772797,96.359848 195.049133,96.231148 192.399002,96.091164 
	C190.813965,96.007446 189.307068,94.444565 187.614258,93.274963 
	C188.761826,93.210732 190.060074,93.586380 191.358505,93.586922 
	C193.429398,93.587791 195.683365,93.754906 197.471130,92.968216 
	C198.088684,92.696480 197.546661,89.789597 197.730011,87.759720 
z"/>
<path fill="#FAF5F5" opacity="1.000000" stroke="none" 
	d="
M201.606750,74.036331 
	C202.008316,74.209801 202.023361,74.430946 202.067932,74.983398 
	C201.244186,75.761185 200.373520,76.177643 199.541061,76.660049 
	C197.430771,77.882988 195.337616,79.135529 193.237595,80.376221 
	C194.573685,82.439125 195.909760,84.502022 197.401352,86.828812 
	C193.134262,87.697136 191.596939,84.568108 191.183197,81.287819 
	C190.758224,77.918373 193.097275,75.841202 196.398224,75.086388 
	C197.998291,74.720505 199.612457,74.416191 201.606750,74.036331 
z"/>
<path fill="#FAF5F5" opacity="1.000000" stroke="none" 
	d="
M39.206512,92.736534 
	C37.633308,94.200531 35.857246,96.029213 33.805275,96.424095 
	C31.658407,96.837212 28.465673,96.613823 27.195440,95.276657 
	C26.166016,94.193001 27.308418,91.046211 27.770138,88.645203 
	C28.259102,89.063011 28.677898,89.664864 28.638323,90.234901 
	C28.311588,94.941147 30.143732,96.175117 34.558594,94.196701 
	C35.973499,93.562645 37.439667,93.042984 39.206512,92.736534 
z"/>
<path fill="#FAF5F5" opacity="1.000000" stroke="none" 
	d="
M76.950424,75.029022 
	C72.928673,77.329941 68.734001,79.331398 64.249100,81.466858 
	C64.142380,80.748848 64.095207,79.314217 64.545471,79.135941 
	C68.572983,77.541283 72.688133,76.167992 76.950424,75.029022 
z"/>
<path fill="#FAF5F5" opacity="1.000000" stroke="none" 
	d="
M36.081726,117.712013 
	C39.972008,116.619141 44.293800,115.656303 48.923996,114.553841 
	C48.312885,118.482178 45.034016,118.717308 41.837936,118.737221 
	C40.064964,118.748268 38.288261,118.160126 36.081726,117.712013 
z"/>
<path fill="#FAF5F5" opacity="1.000000" stroke="none" 
	d="
M63.585682,109.097931 
	C62.877117,109.456230 61.793224,109.729919 60.355293,110.002869 
	C56.709816,111.514381 53.418381,113.026619 49.770142,114.389954 
	C49.731419,113.301460 50.049503,112.361862 50.497078,110.840988 
	C52.075619,109.875786 53.524670,109.491844 54.973724,109.107910 
	C57.719269,109.076385 60.464813,109.044853 63.585682,109.097931 
z"/>
<path fill="#F3F1F1" opacity="1.000000" stroke="none" 
	d="
M53.998455,149.002594 
	C53.664974,144.475998 53.236259,139.953766 53.029095,135.421402 
	C52.872238,131.989746 52.998016,128.545166 54.003338,125.107468 
	C54.003338,132.758316 54.003338,140.409180 54.001671,148.530014 
	C54.000004,149.000000 53.998455,149.002594 53.998455,149.002594 
z"/>
<path fill="#F3F1F1" opacity="1.000000" stroke="none" 
	d="
M136.973648,137.434387 
	C136.929764,134.663010 136.929764,131.876129 136.929764,129.106583 
	C139.893982,129.106583 142.427719,129.106583 144.961456,129.106583 
	C144.968689,129.314987 144.975922,129.523407 144.983154,129.731812 
	C143.267456,129.906693 141.551773,130.081573 139.897980,130.250153 
	C139.119476,132.601334 138.384964,134.819687 137.298523,137.262436 
	C136.946625,137.486832 137.017532,137.418869 136.973648,137.434387 
z"/>
<path fill="#FBF7F7" opacity="1.000000" stroke="none" 
	d="
M179.041962,115.522087 
	C182.957321,115.812004 186.922363,116.454834 191.117920,117.345001 
	C187.199570,117.471428 182.470856,121.488983 179.041962,115.522087 
z"/>
<path fill="#F3F1F1" opacity="1.000000" stroke="none" 
	d="
M54.001457,148.998474 
	C58.703194,149.656998 62.091076,148.860474 61.131615,142.856262 
	C61.043324,142.303741 61.933475,141.594864 62.731071,140.740173 
	C63.092850,140.521774 63.080265,140.612076 63.126957,140.596527 
	C62.818565,141.833237 62.064018,143.122208 62.175133,144.331650 
	C62.766720,150.770721 59.063759,150.700455 54.277405,149.295227 
	C53.998455,149.002594 54.000004,149.000000 54.001457,148.998474 
z"/>
<path fill="#F3F1F1" opacity="1.000000" stroke="none" 
	d="
M71.573486,149.996735 
	C71.051582,149.977554 70.858932,150.010727 70.726097,149.936661 
	C70.495338,149.807938 70.301521,149.612946 70.092216,149.445755 
	C72.001335,149.264816 73.910454,149.083878 75.819572,148.902939 
	C75.845566,149.203171 75.871559,149.503418 75.897560,149.803650 
	C74.574928,149.869354 73.252296,149.935059 71.573486,149.996735 
z"/>
<path fill="#F3F1F1" opacity="1.000000" stroke="none" 
	d="
M87.000305,149.000000 
	C85.387352,149.404953 83.774391,149.809891 82.161438,150.214828 
	C82.109161,149.872269 82.056877,149.529709 82.004601,149.187149 
	C83.406158,149.123718 84.807716,149.060287 86.604637,148.998428 
	C87.000000,149.000000 87.000305,149.000000 87.000305,149.000000 
z"/>
<path fill="#F3F1F1" opacity="1.000000" stroke="none" 
	d="
M56.467937,123.605026 
	C56.351784,124.055092 56.067429,124.331497 55.764759,124.586143 
	C55.756519,124.593063 55.550941,124.365440 55.437386,124.247177 
	C55.723999,123.974251 56.010612,123.701324 56.467937,123.605026 
z"/>
<path fill="#F3F1F1" opacity="1.000000" stroke="none" 
	d="
M86.999939,149.000000 
	C87.673912,148.696289 88.347954,148.392563 89.021988,148.088852 
	C89.075279,148.308243 89.128563,148.527634 89.181847,148.747009 
	C88.653419,148.831497 88.124985,148.915970 87.298431,149.000214 
	C87.000305,149.000000 87.000000,149.000000 86.999939,149.000000 
z"/>
<path fill="#F1EFE7" opacity="1.000000" stroke="none" 
	d="
M132.372223,147.719360 
	C132.523300,147.299377 132.563675,147.441711 132.553864,147.415359 
	C133.011749,147.750458 133.479462,148.111908 133.947174,148.473373 
	C133.530304,148.642853 133.113419,148.812332 132.345535,148.988190 
	C131.994522,148.994568 132.000000,149.000000 132.002289,149.002686 
	C132.076782,148.716690 132.148956,148.428024 132.372223,147.719360 
z"/>
<path fill="#F3F1F1" opacity="1.000000" stroke="none" 
	d="
M60.294491,123.887787 
	C60.211536,123.596405 60.303391,123.206589 60.513435,123.126419 
	C60.689407,123.059258 61.003391,123.353668 61.256264,123.487991 
	C61.011009,123.633156 60.765751,123.778328 60.294491,123.887787 
z"/>
<path fill="#FAF5F5" opacity="1.000000" stroke="none" 
	d="
M28.864651,88.254211 
	C28.669476,88.062813 28.926970,87.806747 28.985001,87.741104 
	C29.132544,87.845108 29.250917,88.007599 29.295752,88.188332 
	C29.311235,88.250740 29.143740,88.358551 28.864651,88.254211 
z"/>
<path fill="#FAF5F5" opacity="1.000000" stroke="none" 
	d="
M63.115578,81.780899 
	C63.281425,81.986641 63.074028,82.160812 63.041397,82.216133 
	C62.908207,82.123619 62.783440,81.984894 62.722218,81.822250 
	C62.704472,81.775108 62.868847,81.659416 63.115578,81.780899 
z"/>
<path fill="#F3F1F1" opacity="1.000000" stroke="none" 
	d="
M64.464294,144.442780 
	C64.523750,144.405914 64.404839,144.479645 64.464294,144.442780 
z"/>
<path fill="#F3F1F1" opacity="1.000000" stroke="none" 
	d="
M68.228378,146.621155 
	C68.162590,146.865570 68.044975,147.108429 67.927353,147.351303 
	C67.902321,147.174835 67.877281,146.998367 67.998199,146.671509 
	C68.144150,146.521103 68.176544,146.619629 68.228378,146.621155 
z"/>
<path fill="#F3F1F1" opacity="1.000000" stroke="none" 
	d="
M78.542328,148.561981 
	C78.478218,148.602554 78.606430,148.521393 78.542328,148.561981 
z"/>
<path fill="#FFFFFE" opacity="1.000000" stroke="none" 
	d="
M54.606697,109.042526 
	C53.524670,109.491844 52.075619,109.875786 50.380936,110.480995 
	C49.336983,110.798866 48.538662,110.895462 47.410370,111.031982 
	C48.212608,109.274139 48.887402,107.795547 49.548965,106.345947 
	C51.095921,107.213692 52.667793,108.095413 54.606697,109.042526 
z"/>
<path fill="#E83349" opacity="1.000000" stroke="none" 
	d="
M46.059143,112.154984 
	C45.544247,113.188660 44.735317,114.116180 43.926388,115.043701 
	C43.595383,114.566093 43.264381,114.088486 42.933376,113.610878 
	C43.877285,113.090195 44.821198,112.569511 46.059143,112.154984 
z"/>
<path fill="#FAF5F5" opacity="1.000000" stroke="none" 
	d="
M94.794601,84.319687 
	C95.282730,84.410118 95.635834,84.811195 95.991379,85.541580 
	C95.549065,85.457359 95.104324,85.043846 94.794601,84.319687 
z"/>
<path fill="#FBD7D3" opacity="1.000000" stroke="none" 
	d="
M123.747238,116.974457 
	C120.903816,119.760475 118.001945,120.507507 115.996475,115.327698 
	C118.426247,113.597633 120.859375,112.248909 123.915451,110.554871 
	C122.697762,112.903641 121.636963,114.949760 120.549057,117.048203 
	C121.409782,117.009377 122.388206,116.965240 123.747238,116.974457 
z"/>
<path fill="#FDE5D0" opacity="1.000000" stroke="none" 
	d="
M123.924652,100.732986 
	C122.827225,95.978172 123.950951,91.692177 127.711472,88.053268 
	C126.791885,92.238113 125.508751,96.439621 123.924652,100.732986 
z"/>
<path fill="#FDE5D0" opacity="1.000000" stroke="none" 
	d="
M128.330383,88.326614 
	C129.170410,86.501816 130.295258,84.931458 131.819412,83.418747 
	C132.390717,83.710243 132.612396,83.878769 132.883743,83.981964 
	C131.460892,85.514999 130.038040,87.048035 128.330383,88.326614 
z"/>
<path fill="#E9394E" opacity="1.000000" stroke="none" 
	d="
M182.343628,112.695671 
	C182.840912,113.445061 183.046234,114.049919 183.251556,114.654778 
	C182.294403,114.199989 181.337234,113.745209 180.380081,113.290421 
	C180.937271,113.043991 181.494476,112.797569 182.343628,112.695671 
z"/>
<path fill="#E9394E" opacity="1.000000" stroke="none" 
	d="
M192.691162,115.329697 
	C192.991226,115.344589 193.155029,115.499878 193.318817,115.655167 
	C193.064178,115.593475 192.809540,115.531784 192.691162,115.329697 
z"/>
<path fill="#FAF5F5" opacity="1.000000" stroke="none" 
	d="
M133.082886,83.773331 
	C132.612396,83.878769 132.390717,83.710243 132.123047,83.288223 
	C132.192810,82.985359 132.358231,82.870659 132.792221,82.893967 
	C133.134521,83.209534 133.208282,83.387115 133.082886,83.773331 
z"/>
<path fill="#FBD7D3" opacity="1.000000" stroke="none" 
	d="
M116.124023,114.752800 
	C115.957474,114.678062 115.860733,114.350555 116.081253,114.020081 
	C116.330284,114.178093 116.262062,114.339058 116.124023,114.752800 
z"/>
<path fill="#FBF7F7" opacity="1.000000" stroke="none" 
	d="
M125.019119,140.002350 
	C126.992149,136.202164 129.746368,137.837448 132.101105,138.731079 
	C132.735672,138.971878 133.135193,141.916641 132.904266,142.023438 
	C131.070618,142.871307 129.069733,143.663086 127.095413,143.728912 
	C126.438583,143.750824 125.709541,141.607025 125.019119,140.002350 
z"/>
<path fill="#F9EDEE" opacity="1.000000" stroke="none" 
	d="
M132.054871,131.070099 
	C130.275070,132.944855 128.415726,134.404816 126.556389,135.864761 
	C126.149414,135.481552 125.742447,135.098343 125.335472,134.715118 
	C125.335472,133.007782 125.335472,131.300430 125.335472,128.497208 
	C127.715508,129.270782 129.845428,129.963043 132.054871,131.070099 
z"/>
<path fill="#FCEAEB" opacity="1.000000" stroke="none" 
	d="
M61.329605,129.096100 
	C62.235001,129.078323 62.803909,128.912720 63.202778,129.103180 
	C65.053696,129.987015 66.857468,130.969589 68.678116,131.916809 
	C66.822769,133.038971 65.031555,134.297394 63.080307,135.215775 
	C62.306862,135.579803 61.178051,135.188797 59.110405,135.087769 
	C59.784172,132.856491 60.349480,130.984390 61.329605,129.096100 
z"/>
<path fill="#FEF5F6" opacity="1.000000" stroke="none" 
	d="
M98.699707,136.874100 
	C100.717804,133.998230 103.335045,132.804657 105.567039,135.172684 
	C106.917435,136.605362 107.647644,139.773865 106.999718,141.562210 
	C106.511230,142.910492 103.193268,144.272675 101.489037,143.919418 
	C98.208038,143.239304 97.483955,140.368942 98.699707,136.874100 
z"/>
</svg>